<svg width="16" height="16" viewBox="0 0 16 16" fill="none" xmlns="http://www.w3.org/2000/svg">
  <!-- Simplified version for 16x16 -->
  <rect width="16" height="16" rx="2" fill="#3B82F6"/>
  
  <!-- Kanban columns (simplified) -->
  <rect x="2" y="3" width="2" height="10" rx="0.5" fill="white" opacity="0.9"/>
  <rect x="6" y="3" width="2" height="10" rx="0.5" fill="white" opacity="0.7"/>
  <rect x="10" y="3" width="2" height="10" rx="0.5" fill="white" opacity="0.5"/>
  
  <!-- Cards (simplified) -->
  <rect x="2.5" y="4" width="1" height="1" rx="0.2" fill="#1E40AF"/>
  <rect x="2.5" y="6" width="1" height="1" rx="0.2" fill="#1E40AF"/>
  <rect x="2.5" y="8" width="1" height="1" rx="0.2" fill="#1E40AF"/>
  
  <rect x="6.5" y="4" width="1" height="1" rx="0.2" fill="#059669"/>
  <rect x="6.5" y="6" width="1" height="1" rx="0.2" fill="#059669"/>
  
  <rect x="10.5" y="4" width="1" height="1" rx="0.2" fill="#DC2626"/>
  
  <!-- Arrow -->
  <path d="M4.5 11 L7.5 11 M6.5 10 L7.5 11 L6.5 12" stroke="white" stroke-width="0.8" stroke-linecap="round" stroke-linejoin="round" opacity="0.8"/>
</svg>