<svg width="32" height="32" viewBox="0 0 32 32" fill="none" xmlns="http://www.w3.org/2000/svg">
  <!-- Background circle -->
  <circle cx="16" cy="16" r="15" fill="#3B82F6" stroke="#1E40AF" stroke-width="2"/>
  
  <!-- Kanban columns -->
  <rect x="6" y="8" width="4" height="16" rx="1" fill="white" opacity="0.9"/>
  <rect x="12" y="8" width="4" height="16" rx="1" fill="white" opacity="0.7"/>
  <rect x="18" y="8" width="4" height="16" rx="1" fill="white" opacity="0.5"/>
  
  <!-- Cards in columns -->
  <rect x="6.5" y="9" width="3" height="2" rx="0.5" fill="#1E40AF"/>
  <rect x="6.5" y="12" width="3" height="2" rx="0.5" fill="#1E40AF"/>
  <rect x="6.5" y="15" width="3" height="2" rx="0.5" fill="#1E40AF"/>
  
  <rect x="12.5" y="9" width="3" height="2" rx="0.5" fill="#059669"/>
  <rect x="12.5" y="12" width="3" height="2" rx="0.5" fill="#059669"/>
  
  <rect x="18.5" y="9" width="3" height="2" rx="0.5" fill="#DC2626"/>
  
  <!-- Movement arrow -->
  <path d="M10 18 L14 18 M12 16 L14 18 L12 20" stroke="white" stroke-width="1.5" stroke-linecap="round" stroke-linejoin="round" opacity="0.8"/>
</svg>